@startuml
Camera --* Spot
Camera --* Color
Camera --* VideoCapture
Camera --* Mat
Spot --* Color
Class Spot{
Color color;
==
pair<int, int> center;
==
void setColor(const Color &color)
..
const setColor(const Color &color)
..
const Color &getColor()
..
void setCenter(const pair<int,int> &centre)
..
pair<int,int> &getCenter()
}
class Color{
int R
==
int R1
==
int G
==
int G1
==
int B
==
int B1
}
class Camera{
Spot front
==
Spot back
==
Spot target
==
Mat frame
==
VideoCapture cap
==
bool haveRobot()
..
void detectRobot()
..
Mat detect_spot_on_image(Spot part)
..
pair <int, int> center_a_contrast_spot(Spot part)
..
pair <int, int> center_a_robot(pair <int, int> front, pair <int, int> back)
..
double angle_need_to_point(pair <int, int> center_robot, pair <int, int> center_spot_target)
..
 double distance_beetwen_points(pair <int, int> center_robot, pair <int, int> center_spot_target)
}
@enduml